<svg xmlns="http://www.w3.org/2000/svg" viewBox="0 0 400 225" role="img" aria-labelledby="t d">
<title id="t">Skill Evaluation and Versioning</title>
<desc id="d">Ink-illustration cover for Skill Evaluation and Versioning</desc>
<rect width="400" height="225" fill="#f4ecd8"/>
<rect x="0.75" y="0.75" width="398.5" height="223.5" fill="none" stroke="#e3d6b8" stroke-width="1.5"/>
<path d="M 232.5 118.0 L 223.3 124.3 L 212.7 127.5 L 202.3 131.6 L 191.1 130.5 L 181.0 125.7 L 170.7 121.2 L 162.9 113.1 L 157.5 103.2 L 156.2 92.0 L 154.2 81.0 L 157.4 70.3 L 162.1 60.2 L 169.9 52.4 L 179.4 47.0 L 189.1 42.3 L 199.9 40.6 L 210.7 42.5 L 221.7 44.7 L 230.5 51.7 L 238.1 59.9 L 243.4 69.9 " stroke="#2a2012" stroke-width="1.80" fill="none" stroke-linecap="round"/>
<path d="M 247.6 69.9 Q 247.3 71.1 245.9 72.9 Q 244.5 75.4 242.6 73.7 Q 240.9 71.2 239.8 71.6 Q 238.0 68.2 239.7 68.1 Q 241.1 68.3 242.5 65.8 Q 245.3 67.6 245.9 66.8 Q 245.4 69.0 247.6 69.9 Z" stroke="#8c2f23" stroke-width="1.60" fill="#8c2f23"/>
<path d="M 235.6 118.0 Q 233.5 118.8 234.3 120.2 Q 233.0 122.8 231.8 120.9 Q 233.1 122.2 229.9 119.2 Q 228.7 116.3 229.8 116.7 Q 229.1 115.3 231.8 114.9 Q 231.1 114.9 234.4 115.6 Q 232.7 115.3 235.6 118.0 Z" stroke="#9a7322" stroke-width="1.40" fill="none"/>
<text x="200.0" y="88.5" font-family="'JetBrains Mono', ui-monospace, monospace" font-size="10.0" fill="#8c2f23" font-weight="700" text-anchor="middle">RUN</text>
<text x="232.5" y="109.0" font-family="'JetBrains Mono', ui-monospace, monospace" font-size="8.5" fill="#9a7322" text-anchor="middle">START</text>
<text x="243.4" y="60.9" font-family="'JetBrains Mono', ui-monospace, monospace" font-size="8.5" fill="#8c2f23" text-anchor="middle">REVISE</text>
<text x="200.0" y="155.0" font-family="'JetBrains Mono', ui-monospace, monospace" font-size="12.5" fill="#2a2012" font-weight="700" text-anchor="middle">SKILL EVALUATION VERSIONING</text>
<text x="386" y="215" font-family="'JetBrains Mono', ui-monospace, monospace" font-size="8.0" fill="#2a2012" opacity="0.5" text-anchor="end">SYSTEMS · EXPLANATIONS</text>
</svg>