<svg xmlns="http://www.w3.org/2000/svg" viewBox="0 0 960 420" role="img" aria-label="Project setup with quotas and owners">
  <rect width="960" height="420" rx="24" fill="#f8fafc"/>
  <rect x="40" y="40" width="880" height="340" rx="20" fill="#ffffff" stroke="#e2e8f0" stroke-width="2"/>
  <text x="70" y="90" fill="#0f172a" font-size="18" font-family="'Plus Jakarta Sans', sans-serif" font-weight="600">New Project</text>

  <rect x="70" y="120" width="340" height="240" rx="16" fill="#f8fafc" stroke="#e2e8f0" stroke-width="2"/>
  <text x="95" y="155" fill="#475569" font-size="12" font-family="'Plus Jakarta Sans', sans-serif">Project name</text>
  <rect x="95" y="165" width="270" height="34" rx="10" fill="#ffffff" stroke="#cbd5f5"/>
  <text x="115" y="187" fill="#0f172a" font-size="12" font-family="'Plus Jakarta Sans', sans-serif">Support Assistant</text>

  <text x="95" y="230" fill="#475569" font-size="12" font-family="'Plus Jakarta Sans', sans-serif">Owner</text>
  <rect x="95" y="240" width="270" height="34" rx="10" fill="#ffffff" stroke="#cbd5f5"/>
  <text x="115" y="262" fill="#0f172a" font-size="12" font-family="'Plus Jakarta Sans', sans-serif">Dana Patel</text>

  <text x="95" y="300" fill="#475569" font-size="12" font-family="'Plus Jakarta Sans', sans-serif">Support contact</text>
  <rect x="95" y="310" width="270" height="34" rx="10" fill="#ffffff" stroke="#cbd5f5"/>
  <text x="115" y="332" fill="#0f172a" font-size="12" font-family="'Plus Jakarta Sans', sans-serif">oncall-ai@org.com</text>

  <rect x="440" y="120" width="430" height="240" rx="16" fill="#f1f5f9" stroke="#e2e8f0" stroke-width="2"/>
  <text x="470" y="155" fill="#0f172a" font-size="14" font-family="'Plus Jakarta Sans', sans-serif" font-weight="600">Quotas and budgets</text>
  <rect x="470" y="180" width="360" height="44" rx="12" fill="#ffffff" stroke="#e2e8f0"/>
  <text x="495" y="208" fill="#0f172a" font-size="12" font-family="'Plus Jakarta Sans', sans-serif">Monthly budget</text>
  <text x="805" y="208" fill="#0f172a" font-size="12" text-anchor="end" font-family="'Plus Jakarta Sans', sans-serif">$8,000</text>

  <rect x="470" y="236" width="360" height="44" rx="12" fill="#ffffff" stroke="#e2e8f0"/>
  <text x="495" y="264" fill="#0f172a" font-size="12" font-family="'Plus Jakarta Sans', sans-serif">Requests / min</text>
  <text x="805" y="264" fill="#0f172a" font-size="12" text-anchor="end" font-family="'Plus Jakarta Sans', sans-serif">120</text>

  <rect x="470" y="292" width="360" height="44" rx="12" fill="#ffffff" stroke="#e2e8f0"/>
  <text x="495" y="320" fill="#0f172a" font-size="12" font-family="'Plus Jakarta Sans', sans-serif">Token cap</text>
  <text x="805" y="320" fill="#0f172a" font-size="12" text-anchor="end" font-family="'Plus Jakarta Sans', sans-serif">2M</text>
</svg>
