<svg xmlns="http://www.w3.org/2000/svg" viewBox="0 0 400 225" role="img" aria-labelledby="t d">
<title id="t">The Architecture of In-Chat AI Apps</title>
<desc id="d">Ink-illustration cover for The Architecture of In-Chat AI Apps</desc>
<rect width="400" height="225" fill="#f4ecd8"/>
<rect x="0.75" y="0.75" width="398.5" height="223.5" fill="none" stroke="#e3d6b8" stroke-width="1.5"/>
<path d="M 104.8 50.4 L 295.0 50.7 Q 299.5 51.0 299.6 55.4 L 300.1 59.4 Q 299.4 64.4 295.0 64.4 L 104.8 64.5 Q 99.3 64.3 99.3 59.4 L 99.4 55.4 Q 99.8 50.0 104.8 50.4 Z" stroke="#2a2012" stroke-width="1.30" fill="none"/>
<text x="92.0" y="59.9" font-family="'JetBrains Mono', ui-monospace, monospace" font-size="8.5" fill="#2a2012" text-anchor="end">AGENTIC UX</text>
<path d="M 103.8 70.9 L 295.0 71.2 Q 300.2 71.5 300.0 75.9 L 300.4 79.4 Q 300.6 84.2 295.0 84.8 L 103.8 84.8 Q 98.3 84.9 98.7 79.4 L 99.2 75.9 Q 98.9 70.9 103.8 70.9 Z" stroke="#8c2f23" stroke-width="1.70" fill="none"/>
<text x="92.0" y="80.0" font-family="'JetBrains Mono', ui-monospace, monospace" font-size="8.5" fill="#8c2f23" text-anchor="end">MCP</text>
<path d="M 106.0 88.1 L 294.6 87.6 Q 300.3 88.7 299.1 93.1 L 300.1 94.4 Q 299.4 99.2 294.6 99.2 L 106.0 99.2 Q 100.3 99.8 100.9 94.4 L 101.2 93.1 Q 100.4 88.2 106.0 88.1 Z" stroke="#2a2012" stroke-width="1.30" fill="none"/>
<text x="92.0" y="95.7" font-family="'JetBrains Mono', ui-monospace, monospace" font-size="8.5" fill="#2a2012" text-anchor="end">WIDGETS</text>
<path d="M 105.1 107.0 L 295.7 107.0 Q 300.9 107.2 300.7 112.0 L 301.0 114.7 Q 300.6 119.6 295.7 119.7 L 105.1 119.3 Q 100.1 119.2 99.6 114.7 L 100.0 112.0 Q 99.4 107.4 105.1 107.0 Z" stroke="#2a2012" stroke-width="1.30" fill="none"/>
<text x="92.0" y="116.0" font-family="'JetBrains Mono', ui-monospace, monospace" font-size="8.5" fill="#2a2012" text-anchor="end">INTERFACE</text>
<text x="200.0" y="155.0" font-family="'JetBrains Mono', ui-monospace, monospace" font-size="12.5" fill="#2a2012" font-weight="700" text-anchor="middle">ARCHITECTURE IN-CHAT AI APPS</text>
<text x="386" y="215" font-family="'JetBrains Mono', ui-monospace, monospace" font-size="8.0" fill="#2a2012" opacity="0.5" text-anchor="end">SYSTEMS · HOW-THINGS-FIT-TOGETHER</text>
</svg>