<svg xmlns="http://www.w3.org/2000/svg" viewBox="0 0 400 225" role="img" aria-labelledby="title desc">
  <title id="title">Enterprise AI at Scale</title>
  <desc id="desc">Enterprise architecture layers</desc>
  <rect width="400" height="225" fill="#f9fafb"/>
  <g stroke="#3b82f6" stroke-width="1.5" fill="none">
    <rect x="60" y="35" width="280" height="22" rx="3"/>
    <rect x="60" y="62" width="280" height="22" rx="3"/>
    <rect x="60" y="89" width="280" height="22" rx="3"/>
    <rect x="60" y="116" width="280" height="22" rx="3"/>
    <rect x="60" y="143" width="280" height="22" rx="3"/>
  </g>
  <g fill="#3b82f6" opacity="0.1">
    <rect x="60" y="35" width="280" height="22" rx="3"/>
    <rect x="60" y="62" width="280" height="22" rx="3"/>
    <rect x="60" y="89" width="280" height="22" rx="3"/>
    <rect x="60" y="116" width="280" height="22" rx="3"/>
    <rect x="60" y="143" width="280" height="22" rx="3"/>
  </g>
  <g font-family="system-ui, sans-serif" font-size="9" fill="#6b7280">
    <text x="200" y="50" text-anchor="middle">adoption design</text>
    <text x="200" y="77" text-anchor="middle">governance contracts</text>
    <text x="200" y="104" text-anchor="middle">architecture layers</text>
    <text x="200" y="131" text-anchor="middle">blueprint</text>
    <text x="200" y="158" text-anchor="middle">live operating reality</text>
  </g>
  <g stroke="#d1d5db" stroke-width="1" stroke-dasharray="4 3" fill="none">
    <line x1="60" y1="175" x2="340" y2="175"/>
  </g>
  <g font-family="system-ui, sans-serif" font-size="11" fill="#6b7280">
    <text x="200" y="210" text-anchor="middle">prototype → production gap</text>
  </g>
</svg>