<svg xmlns="http://www.w3.org/2000/svg" viewBox="0 0 400 225" role="img" aria-labelledby="t d">
<title id="t">What LLM-Ops Actually Means</title>
<desc id="d">Ink-illustration cover for What LLM-Ops Actually Means</desc>
<rect width="400" height="225" fill="#f4ecd8"/>
<rect x="0.75" y="0.75" width="398.5" height="223.5" fill="none" stroke="#e3d6b8" stroke-width="1.5"/>
<path d="M 231.5 117.0 L 222.6 123.2 L 213.0 128.5 L 202.2 129.4 L 191.0 130.7 L 180.8 126.2 L 172.2 119.5 L 164.4 111.9 L 157.2 103.3 L 155.5 92.1 L 156.1 81.2 L 156.7 70.1 L 162.3 60.4 L 169.3 51.7 L 178.5 45.5 L 189.1 42.1 L 199.9 39.6 L 210.8 42.2 L 220.7 46.5 L 229.4 52.9 L 237.5 60.4 L 243.1 70.0 " stroke="#2a2012" stroke-width="1.80" fill="none" stroke-linecap="round"/>
<path d="M 247.0 70.0 Q 246.1 72.2 245.6 73.1 Q 244.3 73.5 242.2 73.7 Q 241.5 73.8 239.6 71.7 Q 240.1 69.8 239.4 68.2 Q 240.2 67.0 242.2 66.3 Q 242.4 64.7 245.6 66.8 Q 247.6 69.7 247.0 70.0 Z" stroke="#8c2f23" stroke-width="1.60" fill="#8c2f23"/>
<path d="M 234.6 117.0 Q 233.8 118.4 233.3 119.3 Q 229.9 117.7 230.8 119.9 Q 230.6 119.7 228.7 118.4 Q 228.1 118.7 228.9 115.8 Q 229.0 115.2 230.8 114.0 Q 230.5 113.6 233.3 114.7 Q 234.5 113.8 234.6 117.0 Z" stroke="#9a7322" stroke-width="1.40" fill="none"/>
<text x="200.0" y="88.5" font-family="'JetBrains Mono', ui-monospace, monospace" font-size="10.0" fill="#8c2f23" font-weight="700" text-anchor="middle">RUN</text>
<text x="231.5" y="108.0" font-family="'JetBrains Mono', ui-monospace, monospace" font-size="8.5" fill="#9a7322" text-anchor="middle">START</text>
<text x="243.1" y="61.0" font-family="'JetBrains Mono', ui-monospace, monospace" font-size="8.5" fill="#8c2f23" text-anchor="middle">REVISE</text>
<text x="200.0" y="155.0" font-family="'JetBrains Mono', ui-monospace, monospace" font-size="12.5" fill="#2a2012" font-weight="700" text-anchor="middle">LLM-OPS ACTUALLY MEANS</text>
<text x="386" y="215" font-family="'JetBrains Mono', ui-monospace, monospace" font-size="8.0" fill="#2a2012" opacity="0.5" text-anchor="end">SYSTEMS · EXPLANATIONS</text>
</svg>