<svg xmlns="http://www.w3.org/2000/svg" viewBox="0 0 400 225" role="img" aria-labelledby="t d">
<title id="t">Runtime Over Model: Why Orchestration Is the Product</title>
<desc id="d">Ink-illustration cover for Runtime Over Model: Why Orchestration Is the Product</desc>
<rect width="400" height="225" fill="#f4ecd8"/>
<rect x="0.75" y="0.75" width="398.5" height="223.5" fill="none" stroke="#e3d6b8" stroke-width="1.5"/>
<path d="M 140.3 85.5 Q 139.0 94.4 134.9 104.7 Q 126.3 109.1 116.9 113.3 Q 107.9 112.5 97.2 111.1 Q 88.5 101.3 84.2 95.6 Q 83.0 87.0 85.0 75.7 Q 92.0 65.8 96.9 59.3 Q 107.6 58.8 117.2 56.0 Q 125.9 60.8 134.9 66.3 Q 139.1 74.9 140.3 85.5 Z" stroke="#2a2012" stroke-width="1.60" fill="none"/>
<path d="M 316.0 85.5 Q 315.3 93.9 310.7 104.5 Q 302.1 111.5 293.1 114.6 Q 284.4 112.8 272.8 111.8 Q 268.5 104.5 260.2 95.6 Q 257.5 83.2 259.4 75.1 Q 266.1 66.4 272.9 59.3 Q 284.9 59.3 293.3 55.6 Q 302.6 61.5 311.1 66.1 Q 312.1 76.0 316.0 85.5 Z" stroke="#8c2f23" stroke-width="1.60" fill="none"/>
<path d="M 112.0 68.0 Q 200.0 58.5 288.0 68.0" stroke="#9a7322" stroke-width="2.00" fill="none" stroke-linecap="round"/>
<text x="112.0" y="126.8" font-family="'JetBrains Mono', ui-monospace, monospace" font-size="9.0" fill="#2a2012" font-weight="700" text-anchor="middle">MCP</text>
<text x="288.0" y="126.8" font-family="'JetBrains Mono', ui-monospace, monospace" font-size="9.0" fill="#8c2f23" font-weight="700" text-anchor="middle">RUNTIME</text>
<text x="200.0" y="52.5" font-family="'JetBrains Mono', ui-monospace, monospace" font-size="8.5" fill="#9a7322" text-anchor="middle">ORCHESTRATE</text>
<text x="200.0" y="155.0" font-family="'JetBrains Mono', ui-monospace, monospace" font-size="12.5" fill="#2a2012" font-weight="700" text-anchor="middle">RUNTIME OVER MODEL</text>
<text x="386" y="215" font-family="'JetBrains Mono', ui-monospace, monospace" font-size="8.0" fill="#2a2012" opacity="0.5" text-anchor="end">SYSTEMS · EXPLANATIONS</text>
</svg>