<svg xmlns="http://www.w3.org/2000/svg" viewBox="0 0 1200 675" role="img" aria-labelledby="t d">
<title id="t">The Intent Architecture Blueprint deck</title>
<desc id="d">Ink-illustration cover for The Intent Architecture Blueprint deck</desc>
<rect width="1200" height="675" fill="#f4ecd8"/>
<rect x="0.75" y="0.75" width="1198.5" height="673.5" fill="none" stroke="#e3d6b8" stroke-width="1.5"/>
<path d="M 315.6 150.9 L 884.1 150.6 Q 898.4 151.5 898.7 165.9 L 898.5 172.3 Q 899.5 187.4 884.1 187.4 L 315.6 187.6 Q 300.7 187.7 300.7 172.3 L 300.9 165.9 Q 300.5 150.8 315.6 150.9 Z" stroke="#2a2012" stroke-width="3.90" fill="none"/>
<text x="276.0" y="177.7" font-family="'JetBrains Mono', ui-monospace, monospace" font-size="25.5" fill="#2a2012" text-anchor="end">RESOURCES</text>
<path d="M 315.2 210.6 L 884.7 210.2 Q 900.1 210.3 900.0 225.6 L 900.0 232.7 Q 899.6 247.0 884.7 248.0 L 315.2 248.0 Q 299.9 247.4 299.7 232.7 L 300.2 225.6 Q 300.9 210.7 315.2 210.6 Z" stroke="#8c2f23" stroke-width="5.10" fill="none"/>
<text x="276.0" y="237.1" font-family="'JetBrains Mono', ui-monospace, monospace" font-size="25.5" fill="#8c2f23" text-anchor="end">ARCHITECTURE</text>
<path d="M 315.1 268.0 L 885.3 268.4 Q 899.9 268.7 899.9 283.0 L 899.8 289.7 Q 900.5 304.2 885.3 304.4 L 315.1 304.4 Q 300.1 305.0 299.9 289.7 L 299.8 283.0 Q 300.4 268.6 315.1 268.0 Z" stroke="#2a2012" stroke-width="3.90" fill="none"/>
<text x="276.0" y="294.5" font-family="'JetBrains Mono', ui-monospace, monospace" font-size="25.5" fill="#2a2012" text-anchor="end">INTENT</text>
<path d="M 314.2 326.3 L 885.5 326.1 Q 900.5 326.8 900.0 341.3 L 900.7 345.6 Q 900.7 360.7 885.5 361.1 L 314.2 361.2 Q 299.5 360.3 299.6 345.6 L 299.2 341.3 Q 298.6 326.4 314.2 326.3 Z" stroke="#2a2012" stroke-width="3.90" fill="none"/>
<text x="276.0" y="351.3" font-family="'JetBrains Mono', ui-monospace, monospace" font-size="25.5" fill="#2a2012" text-anchor="end">LANGUAGE</text>
<text x="600.0" y="465.0" font-family="'JetBrains Mono', ui-monospace, monospace" font-size="37.5" fill="#2a2012" font-weight="700" text-anchor="middle">INTENT ARCHITECTURE BLUEPRINT</text>
<text x="1186" y="665" font-family="'JetBrains Mono', ui-monospace, monospace" font-size="24.0" fill="#2a2012" opacity="0.5" text-anchor="end">SHELF · SHARED RESOURCES</text>
</svg>