<svg width="1024" height="1536" version="1.1" xmlns="http://www.w3.org/2000/svg" desc="Created with imagetracer.js version 1.2.6" ><path fill="rgb(253,249,242)" stroke="rgb(253,249,242)" stroke-width="1" opacity="1" d="M 0 0 L 1024 0 L 1024 1536 L 0 1536 L 0 0 Z M 504 226 L 503 227 L 496 227 L 495 228 L 488 228 Q 486 230 482 229 L 481 230 L 476 230 L 471 232 L 467 232 L 462 234 L 459 234 L 455 236 L 452 236 L 439 241 L 436 241 L 423 247 L 418 248 L 392 261 L 386 261 L 380 264 L 375 269 L 375 270 L 367 274 L 361 274 L 355 282 L 352 281 L 346 283 L 339 290 Q 336 289 337 292 L 332 297 L 329 298 L 324 298 L 320 300 Q 316 302 316 307 L 311 312 L 304 314 L 300 318 L 301 320 L 297 323 L 288 326 Q 282 330 279 337 L 280 340 L 267 355 Q 266 357 269 356 L 267 361 L 242 389 Q 242 392 244 392 L 248 390 L 246 396 L 234 413 L 232 419 Q 233 421 236 420 L 236 423 L 229 437 Q 227 443 232 441 L 231 447 L 226 459 L 229 460 L 229 471 L 228 472 L 228 488 L 227 489 L 227 548 L 228 549 L 229 563 L 230 564 L 230 572 L 220 570 L 219 569 L 208 569 Q 206 571 202 570 L 189 576 L 174 592 L 167 606 L 166 612 L 164 616 L 164 621 L 163 624 L 159 626 L 151 636 L 146 651 L 146 660 Q 148 660 147 664 L 152 672 L 160 676 L 165 677 L 167 680 L 167 687 L 169 693 L 170 703 L 172 708 L 172 712 L 181 742 L 194 769 L 207 786 Q 214 793 223 798 L 226 802 L 226 810 Q 228 810 227 814 L 233 826 L 240 832 L 253 837 L 261 836 L 268 833 L 277 823 L 279 817 L 279 813 L 280 812 L 280 803 L 285 799 L 287 804 L 292 827 L 293 828 L 293 832 L 295 837 L 296 847 L 297 848 L 297 853 L 299 856 L 300 871 L 301 872 L 301 879 L 302 880 L 302 887 L 303 888 L 303 898 L 304 899 L 304 910 L 305 911 L 305 920 L 306 921 L 306 931 L 307 932 L 307 941 L 308 942 L 308 951 L 309 952 L 309 960 L 310 961 L 311 977 L 312 978 L 312 989 L 307 1001 L 303 1007 L 295 1015 L 278 1027 L 265 1034 L 259 1036 L 250 1033 L 244 1033 L 243 1034 L 236 1035 L 197 1053 L 117 1083 L 63 1108 L 49 1116 L 46 1119 Q 45 1126 49 1127 L 55 1127 L 73 1119 L 75 1119 L 91 1111 L 98 1109 L 117 1100 L 119 1100 L 121 1098 L 126 1097 L 143 1089 L 148 1088 L 161 1082 L 182 1075 L 185 1073 L 196 1070 L 239 1051 L 240 1053 L 241 1061 L 248 1076 L 254 1084 L 255 1087 L 264 1098 L 285 1118 L 317 1143 L 342 1159 L 373 1175 L 375 1175 L 387 1181 L 408 1188 L 414 1191 L 417 1191 L 424 1194 L 427 1194 L 431 1196 L 450 1200 L 451 1201 L 455 1201 L 464 1204 L 469 1204 L 474 1206 L 479 1206 L 480 1207 L 494 1208 L 495 1209 L 504 1209 L 505 1210 L 516 1210 L 517 1211 L 543 1211 L 544 1210 L 558 1210 L 559 1209 L 574 1208 L 575 1207 L 580 1207 L 586 1205 L 590 1205 L 591 1204 L 595 1204 L 612 1199 L 615 1199 L 635 1192 L 638 1192 L 652 1186 L 663 1183 L 680 1175 L 682 1175 L 710 1161 L 735 1145 L 747 1135 Q 764 1120 776 1101 L 789 1077 L 793 1063 L 796 1060 L 816 1072 L 818 1072 L 831 1079 L 841 1082 L 846 1085 L 859 1089 L 880 1098 L 885 1099 L 890 1102 L 902 1106 L 917 1113 L 919 1113 L 924 1116 L 938 1121 L 945 1125 L 957 1129 L 960 1131 L 965 1132 L 971 1135 L 976 1135 L 979 1132 L 979 1129 L 964 1117 L 940 1105 L 938 1105 L 924 1098 L 912 1094 L 902 1089 L 897 1088 L 882 1081 L 877 1080 L 874 1078 L 869 1077 L 856 1071 L 854 1071 L 835 1062 L 833 1062 L 799 1044 L 793 1042 L 782 1042 L 781 1043 L 775 1043 L 757 1032 Q 743 1023 733 1011 L 733 990 L 734 989 L 734 983 L 737 980 L 739 974 L 739 963 L 738 962 L 738 938 L 740 936 L 743 942 L 743 945 L 745 950 L 750 954 L 752 954 L 755 952 L 758 942 L 758 933 L 759 932 L 759 910 L 761 905 L 763 914 Q 764 916 768 916 L 769 915 Q 768 910 770 910 L 769 907 L 769 897 L 768 896 L 768 888 L 767 887 L 767 876 L 766 875 Q 765 870 768 869 L 768 871 L 772 873 L 775 869 L 776 866 L 776 860 L 777 859 L 776 838 L 775 837 L 775 828 L 774 827 L 775 825 Q 777 826 776 831 Q 777 833 780 832 L 781 830 L 781 813 L 783 811 L 796 816 L 806 816 L 807 815 L 813 814 L 826 806 Q 835 798 840 786 L 847 766 L 848 758 L 850 753 L 850 749 L 852 744 L 854 727 L 855 726 L 856 709 L 857 708 L 858 676 L 859 675 L 859 660 L 860 659 L 860 646 L 861 645 L 861 624 Q 859 622 860 618 L 859 617 L 859 613 L 857 607 L 852 598 L 845 590 L 837 586 Q 832 587 832 585 L 821 585 L 813 588 L 806 589 L 807 586 L 807 582 L 808 581 L 808 568 L 809 567 L 809 489 L 811 487 L 811 481 L 807 469 L 807 465 L 810 463 L 810 456 L 807 447 L 803 440 Q 802 436 804 436 L 804 433 L 801 428 L 801 426 L 794 413 L 790 402 L 775 371 L 758 346 L 740 325 Q 718 301 692 282 L 657 260 L 628 246 L 594 234 L 586 233 L 581 231 L 577 231 L 576 230 L 572 230 L 571 229 L 566 229 L 565 228 L 551 227 L 550 226 L 504 226 Z M 203 1084 L 201 1086 L 201 1091 L 202 1094 L 212 1110 L 226 1128 L 239 1142 L 259 1158 L 266 1161 L 268 1160 L 263 1153 Q 240 1131 220 1108 L 209 1093 L 206 1087 L 203 1084 Z M 825 1094 L 814 1117 L 806 1130 L 784 1156 L 766 1172 L 742 1190 L 716 1207 L 696 1219 L 690 1221 L 692 1224 L 706 1220 L 737 1205 L 760 1190 L 786 1169 L 808 1146 L 819 1130 L 827 1112 L 828 1105 L 829 1104 L 829 1096 Q 828 1093 825 1094 Z M 409 1232 L 409 1235 L 413 1237 L 424 1241 L 427 1241 L 437 1245 L 444 1246 L 445 1247 L 449 1247 L 454 1249 L 459 1249 L 465 1251 L 469 1251 L 470 1252 L 476 1252 L 477 1253 L 483 1253 L 484 1254 L 491 1254 L 492 1255 L 500 1255 L 501 1256 L 514 1256 L 515 1257 L 529 1257 L 530 1258 L 568 1258 L 569 1257 L 582 1257 L 583 1256 L 591 1256 L 592 1255 L 603 1254 L 612 1251 L 615 1251 L 619 1249 L 628 1247 L 634 1244 Q 637 1243 636 1240 L 627 1240 L 626 1241 L 620 1241 L 619 1242 L 605 1243 L 604 1244 L 596 1244 L 595 1245 L 572 1246 L 571 1247 L 501 1247 L 500 1246 L 485 1246 L 484 1245 L 475 1245 L 474 1244 L 467 1244 L 466 1243 L 460 1243 L 459 1242 L 448 1241 L 447 1240 L 442 1240 L 441 1239 L 428 1237 L 420 1234 L 412 1233 L 409 1232 Z " /><path fill="rgb(253,249,242)" stroke="rgb(253,249,242)" stroke-width="1" opacity="1" d="M 495.5 258 Q 497.8 257.3 497 259.5 Q 495 260.5 497 261.5 L 497.5 263 L 508.5 263 L 509.5 262 L 518.5 262 L 519.5 261 L 531.5 261 L 531 262.5 L 532.5 265 L 536.5 265 L 550.5 260 L 558 259 L 557 262.5 L 560.5 265 L 561.5 264 L 568.5 264 L 569.5 263 L 575.5 263 L 576.5 262 L 586 262 Q 585 265.8 587.5 267 L 599.5 266 L 600.5 265 L 616 265 L 615 267.5 L 617.5 270 Q 620.8 269.2 621.5 271 Q 626.2 269.8 627.5 272 L 636.5 272 L 637.5 273 L 646.5 273 L 664.5 282 L 692.5 302 L 726 333.5 L 739 348.5 L 751 365.5 L 760 382.5 L 769 408.5 L 769 411.5 L 775 429.5 L 779 448.5 L 781 452.5 L 781 456.5 L 782 457.5 L 782 460.5 L 784 465.5 L 784 469.5 L 786 474.5 L 786 478.5 L 787 479.5 L 787 483.5 L 788 484.5 L 789 496.5 L 790 497.5 L 790 530.5 L 789 531.5 L 789 541.5 L 788 542.5 L 788 551.5 L 787 552.5 L 787 560.5 L 786 561.5 L 786 569.5 L 785 570.5 L 785 579.5 L 784 580.5 L 784 594.5 L 783 595.5 L 783 662.5 L 782 663.5 L 781.5 680 Q 779.3 679 780 676 L 777.5 675 Q 773.8 676.3 775 682.5 L 776 683.5 L 776 695.5 Q 778.2 696.7 777 701.5 L 776 701.5 L 773.5 698 L 771 699.5 L 770.5 718 L 768 711 L 764 711 L 764 712.5 L 763 713.5 L 763 743 Q 760.3 744.1 761 741.5 L 758.5 738 Q 753.3 736.3 755 741.5 L 754 742.5 L 754 750.5 L 752.5 753 L 751 747.5 L 748.5 745 Q 744.1 743.5 745 746.5 L 744 747.5 L 744 754.5 L 743 755.5 L 743 762.5 L 742 763.5 L 742 772.5 L 741 775 Q 738 776.3 739 772.5 L 735.5 768 Q 732.5 767.5 732 769.5 L 730 788 Q 727 789.3 728 785.5 Q 726.3 784.8 727 781.5 L 725.5 780 L 723.5 780 L 720 782 L 712 766 Q 714.9 766.5 716 763.5 L 716 760.5 L 710 749.5 L 697.5 737 L 676.5 722 L 671.5 721 Q 670.5 723 669.5 721 L 665.5 718 L 661 718 Q 660.3 722.7 664.5 724 L 666 724.5 L 664.5 725 L 660.5 723 L 648.5 713 L 626.5 699 L 618.5 695 L 615.5 694 L 610.5 694 L 608 692.5 L 609 690 L 610.5 690 L 623 679.5 Q 624.7 677.7 624 673.5 Q 622.8 670.8 617.5 672 L 601.5 685 L 587.5 692 L 585 694.5 L 585 696.5 L 588.5 700 L 594.5 699 L 593.5 701 L 589.5 703 L 586.5 703 L 577.5 706 L 576.5 705 L 571.5 705 L 568.5 704 L 565.5 702 L 554.5 699 L 553 697.5 L 551 693 L 555 693 L 555 690.5 L 556.5 688 Q 556.3 692.7 559.5 694 L 562.5 695 L 568.5 695 L 571 691.5 L 565.5 685 L 549.5 672 L 538.5 667 L 528.5 666 L 527.5 667 L 522.5 667 L 514.5 670 L 511 673.5 Q 510.4 678.6 513.5 680 Q 516.7 682.3 523.5 681 L 524.5 682 L 530.5 683 L 537.5 689 Q 542.4 689.6 545 692.5 L 544 695 Q 541.3 696.1 542 693.5 Q 540.5 690.5 534.5 692 L 518.5 699 L 499.5 711 L 490.5 715 L 490 714.5 L 492.5 712 L 498 708.5 Q 499.8 702.8 493.5 705 L 453.5 727 L 454 725.5 L 457 720.5 L 457 718.5 Q 456.5 715.5 452.5 716 Q 442.7 725.2 430.5 732 L 419 742.5 L 410 753.5 L 407 758.5 L 407 762.5 Q 408 765 412.5 764 L 414 763.5 L 409 771.5 L 409 774.5 L 413 776.5 L 411 778.5 L 407 786.5 L 406 791.5 L 402.5 797 L 400 793.5 L 393 773.5 L 387.5 766 Q 383.8 765.3 383 767.5 L 383 779.5 L 381.5 781 Q 378.2 782.1 379 779.5 L 376 773.5 L 375 767.5 L 371 758.5 L 370 753.5 L 364.5 745 Q 360.8 744.3 360 746.5 L 359 766.5 L 357.5 768 L 354 765.5 L 345 737.5 Q 342.6 736.4 343 732.5 L 340.5 730 Q 336.5 729.5 336 732.5 L 335.5 757 L 328 742.5 L 328 740.5 L 320 722.5 L 320 719.5 L 317 710.5 L 314.5 707 Q 310.1 705.5 311 708.5 L 310 709.5 L 309.5 722 L 308 720.5 L 307 711.5 L 305 706.5 L 305 701.5 L 301.5 697 L 299 698.5 Q 296.7 701.7 298 708.5 L 296.5 710 L 296 703.5 L 295 702.5 L 295 683.5 L 294 682.5 L 294 673.5 L 292.5 672 Q 289.5 671.5 289 673.5 L 288 683.5 L 286.5 687 L 285 683.5 L 285 677.5 L 284 676.5 L 284 671.5 L 283 670.5 L 283 665.5 L 282 664.5 Q 283.3 659.8 281 658.5 L 281 652.5 L 280 651.5 L 280 645.5 L 279 644.5 L 279 638.5 L 278 637.5 L 278 631.5 L 277 630.5 L 277 621.5 L 276 620.5 L 275 602.5 L 274 601.5 L 274 593.5 L 273 592.5 L 272 573.5 L 274 571.5 L 274 558.5 L 273 557.5 L 273 497.5 L 274 496.5 L 274 488.5 L 275 487.5 L 276 480.5 L 280 472.5 L 293 458.5 L 293 456.5 L 290 455 L 291 451.5 L 300 441.5 L 301 438.5 L 298.5 437 L 297 437.5 L 297 435.5 L 304 425.5 L 304 417.5 L 303 416.5 Q 304.2 411.7 302 410.5 L 302 383.5 L 303 382.5 L 303 378.5 L 304 377.5 L 304 373.5 L 305 372.5 L 306 365.5 L 311 350.5 L 319 342.5 L 330 325.5 L 334.5 321 L 336.5 321 L 340 317.5 L 344 309 Q 347.3 307.9 346 312 L 348.5 312 L 360.5 300 L 371.5 295 L 397.5 277 Q 398 279.5 401.5 279 L 406.5 277 L 417.5 268 L 424.5 268 L 429.5 265 L 434 265 Q 432.5 268.8 435.5 268 L 438.5 269 L 455.5 262 L 462 262 Q 461 265.8 463.5 267 L 466.5 267 L 479.5 262 L 482.5 262 L 486.5 260 L 494.5 259 L 495.5 258 Z M 332 429 L 326 436 Q 325 440 327 443 Q 328 445 333 444 L 335 442 L 336 437 L 340 434 Q 343 435 341 431 L 340 429 L 332 429 Z M 382 436 L 373 439 L 355 448 L 338 458 L 335 462 L 338 464 L 342 465 L 332 472 L 321 483 L 324 485 L 327 484 Q 329 483 328 487 Q 334 488 337 485 L 338 485 Q 336 486 337 489 L 340 490 L 351 486 L 351 487 L 349 489 L 351 490 L 358 490 L 369 486 L 378 485 L 379 484 L 392 483 L 393 482 L 407 482 L 408 481 L 409 481 L 409 477 L 425 477 L 426 478 L 433 478 Q 434 480 439 479 L 440 480 L 445 480 L 446 481 L 451 481 L 452 482 L 461 483 L 474 487 L 477 487 L 478 488 L 487 489 L 488 490 Q 491 491 492 488 L 491 484 L 493 484 L 497 488 L 502 488 L 510 495 Q 513 496 514 493 L 513 486 L 511 482 L 511 479 L 508 470 L 502 458 L 496 452 L 483 447 L 464 443 L 463 442 L 444 439 L 443 438 L 432 437 L 431 436 L 424 436 L 422 439 L 423 440 L 414 439 L 413 438 L 406 438 L 405 437 L 397 437 L 396 436 L 382 436 Z M 502 445 L 502 450 L 510 468 L 513 477 L 513 480 L 515 484 L 515 487 L 520 494 L 520 499 L 521 502 L 524 504 L 527 503 L 528 502 L 528 497 L 531 489 L 531 482 L 530 481 L 530 468 L 529 467 L 529 462 L 527 455 Q 523 454 522 457 L 522 466 L 523 467 L 523 479 L 519 471 L 519 468 L 510 450 L 506 445 L 502 445 Z M 647 451 Q 632 466 622 486 L 621 486 L 629 459 Q 629 456 625 456 L 621 460 L 621 462 L 618 467 L 613 484 L 612 484 L 613 464 Q 612 461 609 462 L 606 465 L 605 484 L 604 485 L 604 497 Q 605 499 608 499 L 607 502 L 608 504 Q 609 506 612 505 L 615 501 L 617 499 L 620 502 L 630 498 L 632 496 L 635 499 L 648 497 L 649 496 L 655 496 L 656 495 L 663 495 L 664 494 L 678 494 L 679 493 L 711 494 L 712 495 L 721 495 Q 721 497 726 496 L 733 501 L 741 503 L 757 510 L 772 521 L 775 521 L 775 517 L 768 508 L 769 504 L 771 505 L 775 513 Q 776 515 780 514 L 780 509 L 773 496 L 777 495 L 774 488 L 763 476 L 754 471 L 750 470 L 749 468 L 754 469 L 765 475 L 766 473 L 758 465 L 752 462 L 744 461 L 743 460 L 728 460 L 727 458 L 745 458 L 744 456 Q 740 457 740 455 L 724 455 L 723 453 L 690 453 L 689 454 L 670 455 L 669 456 L 663 456 L 662 457 L 655 457 Q 653 459 649 458 L 650 453 Q 650 451 647 451 Z M 540 461 L 537 464 Q 538 467 536 468 L 536 478 L 535 479 L 535 487 L 534 488 L 534 501 Q 535 503 538 502 L 540 500 Q 539 496 541 496 L 542 480 L 543 479 L 543 463 Q 543 460 540 461 Z M 319 488 L 315 490 L 310 498 L 310 503 L 312 508 L 320 513 L 326 513 Q 325 519 328 523 L 323 529 Q 324 532 322 533 L 322 537 L 324 542 L 332 547 Q 340 548 344 545 L 348 539 Q 349 530 346 527 Q 343 522 336 521 L 330 512 Q 329 509 332 510 L 335 504 L 335 498 L 331 490 L 328 488 L 319 488 Z M 744 508 Q 741 509 742 512 L 744 512 L 767 530 Q 768 532 769 530 Q 772 531 770 527 L 757 514 L 748 509 L 744 508 Z M 593 524 L 590 527 Q 589 530 591 532 L 591 540 L 593 546 L 593 551 L 595 556 L 595 560 L 599 573 L 599 576 L 602 583 L 602 586 L 620 634 L 624 641 L 624 643 Q 629 647 632 655 L 633 664 L 634 665 L 632 678 L 627 686 L 627 689 L 631 692 L 636 691 L 641 686 L 645 674 L 645 663 Q 643 661 644 657 L 640 646 L 635 639 L 626 621 L 620 604 L 618 601 L 616 593 L 614 590 L 613 585 L 611 582 L 610 577 L 608 574 L 605 565 L 605 562 L 602 555 L 596 525 L 593 524 Z M 419 526 L 418 527 L 412 527 L 411 528 L 406 528 L 401 530 L 398 530 L 383 535 L 351 551 L 349 556 L 350 559 L 355 562 Q 356 560 361 561 L 362 560 L 366 561 Q 371 568 380 571 L 387 572 L 388 570 L 387 568 L 384 565 L 378 559 L 377 555 L 380 552 L 398 544 L 400 545 L 400 554 L 402 560 L 412 568 L 423 574 Q 426 573 428 575 L 439 575 Q 439 573 444 574 L 454 569 Q 458 565 461 559 L 463 546 L 465 544 L 471 545 L 504 562 L 508 561 Q 511 560 510 554 L 501 546 L 488 538 L 469 530 L 462 529 L 461 528 L 457 528 L 456 527 L 451 527 L 450 526 L 419 526 Z M 660 536 L 659 537 L 654 537 L 645 540 L 642 540 L 626 547 L 614 554 Q 610 555 611 562 L 616 565 L 624 563 L 639 555 L 644 554 L 645 566 L 648 572 L 654 577 L 662 581 L 668 582 L 669 583 L 681 583 L 693 578 L 700 571 L 703 565 L 704 557 L 706 555 L 709 555 L 722 562 L 727 569 L 726 572 L 725 572 L 721 576 L 711 581 L 706 582 L 703 585 L 705 587 L 714 587 L 715 586 L 723 585 Q 732 582 739 576 L 747 580 L 752 579 L 755 575 L 753 570 Q 745 560 734 553 L 712 542 L 702 539 L 699 539 L 698 538 L 695 538 L 694 537 L 688 537 L 687 536 L 660 536 Z M 487 567 L 474 571 L 471 574 L 473 576 L 482 575 L 491 572 Q 493 571 492 568 L 487 567 Z M 626 573 L 626 577 L 634 581 L 642 584 Q 646 585 646 582 L 645 580 Q 638 573 626 573 Z M 522 605 L 520 606 L 511 618 L 501 638 L 499 640 L 499 642 L 494 652 L 493 658 L 491 662 L 491 665 L 490 666 L 490 678 L 492 684 L 496 690 L 504 695 Q 508 696 509 693 L 509 688 Q 503 683 501 676 L 501 668 L 505 655 L 513 638 L 513 636 L 526 610 L 525 606 L 522 605 Z " /><path fill="rgb(253,249,242)" stroke="rgb(253,249,242)" stroke-width="1" opacity="1" d="M 321.5 496 Q 324.5 495.5 325 497.5 L 326 500.5 Q 325.3 503.8 320.5 503 Q 318.3 502.3 319 498.5 L 321.5 496 Z " /><path fill="rgb(253,249,242)" stroke="rgb(253,249,242)" stroke-width="1" opacity="1" d="M 334.5 530 L 338 531 L 339 533.5 L 336.5 537 Q 331.8 537.8 331 534.5 L 332 531 L 334.5 530 Z " /><path fill="rgb(253,249,242)" stroke="rgb(253,249,242)" stroke-width="1" opacity="1" d="M 209.5 579 L 221.5 580 L 229.5 584 L 231.5 584 Q 243.8 591.7 253.5 602 L 258 604 L 259 607.5 L 259 615.5 L 260 616.5 L 260 625.5 L 261 626.5 L 261 636.5 L 262 637.5 L 263 655.5 L 264 656.5 L 265 676.5 L 266 677.5 L 266 685.5 L 267 686.5 L 268 701.5 L 269 702.5 L 269 708.5 L 270 709.5 L 271 724.5 L 270 725.5 L 270 731.5 L 271 732.5 L 271 740.5 L 272 741.5 L 272 747.5 L 273 748.5 L 273 754.5 L 274 755.5 L 275 766.5 L 279 775.5 L 280 782.5 Q 277.1 790.6 270.5 795 L 261.5 799 L 251.5 799 L 247 796.5 L 247 793.5 Q 249.4 792.4 249 788.5 L 256 777.5 L 256 771.5 Q 254.3 766.3 245.5 768 Q 238 771 234 777.5 L 228.5 787 L 226.5 787 L 222.5 784 L 215 776.5 L 201 756.5 L 191 734.5 L 188 725.5 L 188 722.5 L 184 712.5 L 184 708.5 L 180 695.5 L 180 691.5 L 177 681.5 L 177 674.5 L 191 661.5 Q 197.8 653.8 201 642.5 L 201 629.5 L 196.5 623 Q 194 621 188.5 622 L 185 625.5 L 184 633.5 L 179 644.5 L 173.5 651 L 172 649.5 L 172 633.5 L 173 632.5 L 173 627.5 L 174 626.5 L 175 617.5 L 178 607.5 L 185 594.5 L 189.5 589 L 199.5 582 L 209.5 579 Z M 198 598 L 194 600 Q 187 604 185 614 L 189 616 L 192 610 L 199 605 L 203 605 L 209 608 L 218 618 L 229 635 L 240 659 L 240 666 L 228 690 L 229 699 L 231 703 Q 239 708 244 718 L 244 730 Q 248 737 261 736 L 263 732 L 260 724 L 254 715 L 254 712 L 252 708 L 242 696 L 242 688 L 253 668 Q 252 664 254 664 L 253 659 L 243 640 L 229 618 L 220 608 L 220 606 L 219 606 Q 215 601 210 599 L 207 598 L 198 598 Z M 196 684 L 193 685 L 193 690 L 201 706 L 201 708 L 203 710 L 211 726 L 222 741 L 235 752 Q 239 753 240 751 L 239 746 L 230 733 L 228 727 L 224 722 L 222 722 L 222 721 L 218 717 L 210 705 L 200 688 L 196 684 Z " /><path fill="rgb(253,249,242)" stroke="rgb(253,249,242)" stroke-width="1" opacity="1" d="M 819.5 596 L 830.5 596 Q 837.1 597.9 841 602.5 L 848 617.5 L 848 623.5 L 849 624.5 L 849 643.5 L 848 644.5 L 848 659.5 L 847 660.5 L 847 679.5 L 846 680.5 L 845 705.5 L 844 706.5 L 843 721.5 L 842 722.5 L 842 727.5 L 841 728.5 L 841 733.5 L 840 734.5 L 839 744.5 L 830 774.5 L 823 787.5 L 813.5 798 L 806.5 802 L 803.5 803 L 798.5 803 L 788.5 799 L 785 795.5 L 784 790.5 L 785 789.5 L 785 785.5 L 786 784.5 L 786 780.5 L 787 779.5 L 787 775.5 L 788 774.5 L 788 770.5 L 789 769.5 L 789 765.5 L 791 759.5 L 794 725.5 L 805 711.5 L 806 708.5 L 806 698.5 L 796 678.5 L 796 671.5 L 811 648.5 L 828.5 629 L 840 620.5 Q 840.5 617.5 838.5 617 L 834.5 616 L 825.5 621 L 811 635.5 L 795.5 656 L 794 655.5 L 794 649.5 L 793 648.5 L 793 614.5 L 796.5 608 L 808.5 600 L 819.5 596 Z M 829 638 L 827 640 L 827 653 L 829 659 L 829 663 L 830 664 L 830 668 L 832 669 Q 835 669 835 668 Q 836 663 834 663 L 834 654 L 833 653 L 833 643 L 832 640 Q 832 638 829 638 Z M 825 709 L 822 713 L 816 731 L 803 755 L 804 757 L 804 758 L 809 758 Q 817 751 821 741 L 826 724 L 826 720 L 827 719 L 827 711 L 825 709 Z " /><path fill="rgb(253,249,242)" stroke="rgb(253,249,242)" stroke-width="1" opacity="1" d="M 794.5 690 L 797 694.5 L 800 705.5 L 798 710.5 L 794.5 714 L 794.5 690 Z " /><path fill="rgb(253,249,242)" stroke="rgb(253,249,242)" stroke-width="1" opacity="1" d="M 557.5 745 Q 559.8 744.3 559 746.5 L 560.5 749 Q 562.3 746.4 566 747 Q 566.5 751.7 570.5 754 L 575.5 757 L 579.5 757 L 582.5 754 L 584.5 754 Q 585.5 757 590.5 756 Q 594 753.7 593 748 Q 596.4 747.3 597.5 750 L 601 750 L 603.5 745 L 614.5 757 L 619.5 760 L 622.5 760 Q 624.8 758.8 624.5 755 L 640.5 769 L 646.5 772 L 648 769 L 652.5 771 Q 657.8 778.2 666.5 782 L 668.5 781 Q 672.6 783.9 674 789.5 L 673.5 790 L 671.5 788 Q 667.8 787.3 667 789.5 L 669 796.5 L 682 812.5 L 687 822 L 685 822 L 685 827.5 L 691 838.5 L 694 841.5 L 698 849.5 L 698 852 L 696.5 852 L 689 844.5 L 687 840.5 L 678.5 831 Q 674 830 673 832.5 L 674 838.5 L 680 850.5 L 682 859 L 679.5 859 L 672 851.5 Q 668.6 844.4 662.5 840 Q 658.5 839.5 658 842.5 L 659 852.5 L 660 853.5 L 660 860.5 L 657.5 862 L 628 836.5 Q 627.3 834.3 629.5 835 L 637 829.5 L 637 823.5 L 631.5 817 L 627.5 815 L 621.5 815 L 620.5 814 L 603.5 814 L 602.5 813 L 535.5 812 L 534.5 813 L 525.5 813 L 524.5 814 L 518.5 815 Q 512.3 817.3 509 822.5 Q 507.3 824.3 508 828.5 L 511.5 833 L 517.5 836 L 522.5 836 L 525 838.5 Q 521.6 848.6 515.5 856 L 515 853.5 Q 517.3 852.2 516 847.5 Q 515 845 510.5 846 L 490.5 863 L 483.5 867 Q 480.8 865.8 483 864.5 L 488 850.5 Q 487.3 846.3 489 844.5 L 486.5 841 L 483.5 841 L 476 848.5 Q 471.5 857.1 464.5 863 L 462 861.5 L 467 847.5 L 469 845.5 L 471 835.5 L 470 833 L 464 834 L 464 835.5 L 450.5 852 L 446 853 L 447 846.5 L 461 819.5 L 461 815.5 L 457.5 813 L 447.5 822 L 447 819.5 L 453.5 804 Q 455 807.5 456.5 805 L 460 802.5 L 463 795.5 L 465 785.5 L 470 779.5 L 470 778 L 472 778.5 L 470 781.5 L 471 784 L 474.5 784 L 478.5 782 L 498.5 768 L 503.5 763 L 506.5 761 L 509 761 L 507 765.5 L 507 769.5 Q 508 772 512.5 771 L 518.5 768 L 536.5 755 L 540 754 Q 539 757.8 541.5 759 L 544.5 759 L 551 752.5 L 555 747.5 L 555 746 L 557.5 745 Z M 538 773 L 537 774 L 527 774 L 526 775 L 520 775 L 519 776 L 509 777 L 505 779 L 494 781 L 482 785 L 476 789 Q 475 793 479 794 L 484 794 L 485 793 L 504 789 L 505 788 L 514 787 L 515 786 Q 519 787 521 785 L 531 785 L 532 784 L 590 784 L 591 785 L 602 785 L 603 786 L 610 786 L 611 787 L 621 788 L 622 789 L 625 789 L 626 790 L 629 790 L 639 793 L 650 798 L 656 798 Q 659 797 658 793 L 655 789 L 646 785 L 631 780 L 624 779 L 623 778 L 619 778 L 618 777 L 613 777 L 612 776 L 605 776 L 604 775 L 592 775 L 591 774 L 579 774 L 578 773 L 538 773 Z " /><path fill="rgb(253,249,242)" stroke="rgb(253,249,242)" stroke-width="1" opacity="1" d="M 248.5 809 L 251.5 810 L 257.5 810 L 260.5 809 Q 262.8 809.8 262 813.5 L 258.5 818 Q 256.7 819.7 252.5 819 L 248 815.5 L 246 811.5 L 248.5 809 Z " /><path fill="rgb(253,249,242)" stroke="rgb(253,249,242)" stroke-width="1" opacity="1" d="M 601 840 Q 604 839.3 605 841.5 L 611 854.5 L 609 855.5 Q 602.9 849.5 601 840 Z " /><path fill="rgb(253,249,242)" stroke="rgb(253,249,242)" stroke-width="1" opacity="1" d="M 307.5 849 Q 309.8 850.8 309 855.5 L 307 854.5 Q 307.8 851.3 306 850.5 L 307.5 849 Z " /><path fill="rgb(253,249,242)" stroke="rgb(253,249,242)" stroke-width="1" opacity="1" d="M 317.5 877 L 321.5 885 Q 325.3 884.3 326 886.5 L 333 918.5 L 336 926.5 L 338.5 929 Q 342.3 929.8 343 927.5 Q 341.3 921.6 345 923 L 346 926.5 L 346 930.5 L 347 931.5 L 347 935.5 L 351 948.5 L 355.5 954 L 357.5 954 L 361 951.5 L 364 943.5 L 364 940 Q 366.7 938.9 366 941.5 L 368 945.5 L 368 948.5 L 370 952.5 L 372 962.5 L 376.5 970 Q 380.3 970.8 381 968.5 L 381.5 967 L 383 968.5 L 383 978.5 L 382 979.5 L 382 992.5 Q 382.5 994.5 385.5 994 L 389 990.5 L 393 981.5 L 394 976.5 L 395.5 975 L 397 976.5 L 397 986.5 L 396 987.5 L 396 999.5 Q 393.8 1000.8 395 1005.5 L 396 1006.5 L 396 1012.5 L 397 1015.5 L 399.5 1018 Q 403.5 1018.5 404 1015.5 L 406.5 1009 L 407 1033.5 L 408 1034.5 L 408 1040.5 L 412 1050.5 L 417.5 1057 L 420.5 1058 L 424 1055.5 L 428 1045.5 L 429 1037.5 L 430.5 1034 L 432 1038.5 L 432 1044.5 L 433 1045.5 L 434 1054.5 L 439 1070.5 L 444 1079.5 L 451.5 1088 L 468.5 1100 L 474 1101 L 475 1098.5 L 475 1081.5 L 477.5 1079 L 483 1084.5 L 484 1087.5 L 492 1098.5 L 502.5 1109 L 507.5 1112 L 512 1112 L 512 1107.5 L 507 1098.5 L 506 1093.5 L 508 1094.5 Q 513.3 1103.7 521.5 1110 L 534.5 1119 L 548.5 1126 L 553.5 1126 L 555 1123.5 Q 544.5 1117 537 1107.5 L 533 1100.5 L 533 1097.5 L 533.5 1097 L 547.5 1111 Q 559.8 1121.2 575.5 1128 L 586.5 1132 L 592.5 1132 L 594 1129.5 L 589.5 1125 L 578.5 1118 L 573 1112.5 L 570 1107.5 L 570 1105 L 572.5 1105 L 585 1117.5 Q 584.3 1119.8 586.5 1119 Q 590 1125.5 598.5 1127 Q 601.8 1126.3 601 1121.5 L 599 1117.5 L 600.5 1116 L 603.5 1119 L 612.5 1125 L 616.5 1125 L 620 1121.5 L 621 1118.5 Q 619.7 1113.8 622 1112.5 L 622 1098.5 Q 624 1097.5 623 1093.5 L 624.5 1092 Q 627.5 1091.5 628 1093.5 L 633 1103.5 L 637.5 1109 L 641.5 1110 L 645.5 1105 L 653.5 1115 L 657 1112.5 L 656 1109.5 L 656 1093.5 Q 657.8 1092.8 657 1089.5 L 660.5 1084 L 663 1085.5 L 664 1096.5 L 666.5 1099 L 675.5 1096 L 685 1086.5 L 692 1073.5 L 695 1063.5 L 695 1060.5 L 696 1059.5 L 697 1049.5 L 698.5 1048 Q 701.1 1047.2 700 1050.5 L 703 1060 L 705.5 1061 L 708.5 1060 L 712 1056.5 L 715 1048.5 L 715 1037.5 L 714 1036.5 L 714 1028.5 L 713 1027.5 L 713 1019.5 Q 711 1018.5 712 1014.5 L 713 1013.5 L 713.5 1008 L 716 1019.5 L 718.5 1022 Q 722.1 1021.6 722 1022.5 L 722 1032.5 Q 723.3 1035.3 728.5 1034 L 730.5 1033 L 746.5 1047 L 775 1063.5 L 776 1067.5 L 762 1094.5 Q 750.5 1110.5 735.5 1123 L 708.5 1142 L 685.5 1154 L 683.5 1156 L 661.5 1166 L 631.5 1177 L 628.5 1177 L 610.5 1183 L 606.5 1183 L 605.5 1184 L 601.5 1184 L 600.5 1185 L 596.5 1185 L 595.5 1186 L 591.5 1186 L 585.5 1188 L 580.5 1188 L 579.5 1189 L 572.5 1189 L 571.5 1190 L 564.5 1190 L 563.5 1191 L 549.5 1191 L 548.5 1192 L 515.5 1192 L 514.5 1191 L 503.5 1191 L 502.5 1190 L 493.5 1190 L 492.5 1189 L 479.5 1188 L 478.5 1187 L 473.5 1187 L 472.5 1186 L 468.5 1186 L 467.5 1185 L 448.5 1182 L 436.5 1178 L 429.5 1177 L 425.5 1175 L 422.5 1175 L 382.5 1160 L 356.5 1147 L 322.5 1126 L 286.5 1098 L 273 1084.5 L 262 1069.5 L 258 1061.5 L 258 1057.5 L 260.5 1055 L 270.5 1052 L 285.5 1044 Q 299.6 1035.1 311 1023.5 L 315.5 1018 L 316 1022.5 L 317 1023.5 L 317 1030.5 L 318 1031.5 L 318 1038.5 L 319 1039.5 L 319 1045.5 L 320 1046.5 L 320 1052.5 L 321 1053.5 L 322 1064.5 L 325.5 1069 Q 331.8 1070.3 333 1066.5 L 334 1061.5 L 333 1060.5 L 333 1047.5 L 332 1046.5 L 331 1013.5 L 330 1012.5 L 330 997.5 L 329 996.5 L 329 984.5 L 328 983.5 L 327 961.5 L 326 960.5 L 326 951.5 L 325 950.5 L 324 931.5 L 323 930.5 L 322 914.5 L 321 913.5 L 321 905.5 L 320 904.5 L 320 896.5 L 319 895.5 L 319 887.5 L 318 886.5 Q 319.2 881.8 317 880.5 L 317.5 877 Z " /><path fill="rgb(253,249,242)" stroke="rgb(253,249,242)" stroke-width="1" opacity="1" d="M 721 982 L 724 983.5 L 724 997.5 L 722.5 1000 L 722 994.5 L 721 993.5 L 721 982 Z " /><path fill="rgb(2,2,1)" stroke="rgb(2,2,1)" stroke-width="1" opacity="1" d="M 503.5 226 L 549.5 226 L 550.5 227 L 564.5 228 L 565.5 229 L 570.5 229 L 571.5 230 L 575.5 230 L 576.5 231 L 580.5 231 L 585.5 233 L 593.5 234 L 627.5 246 L 656.5 260 L 691.5 282 Q 717.7 301.3 740 324.5 L 758 345.5 L 775 370.5 L 790 401.5 L 794 412.5 L 801 425.5 L 801 427.5 L 804 432.5 L 804 435.5 Q 802.3 436.2 803 439.5 L 807 446.5 L 810 455.5 L 810 463 L 807 464.5 L 807 468.5 L 811 480.5 L 811 486.5 L 809 488.5 L 809 566.5 L 808 567.5 L 808 580.5 L 807 581.5 L 807 585.5 L 806 589 L 812.5 588 L 820.5 585 L 831.5 585 Q 832.5 587 836.5 586 L 844.5 590 L 852 597.5 L 857 606.5 L 859 612.5 L 859 616.5 L 860 617.5 Q 858.8 622.3 861 623.5 L 861 644.5 L 860 645.5 L 860 658.5 L 859 659.5 L 859 674.5 L 858 675.5 L 857 707.5 L 856 708.5 L 855 725.5 L 854 726.5 L 852 743.5 L 850 748.5 L 850 752.5 L 848 757.5 L 847 765.5 L 840 785.5 Q 834.5 797.5 825.5 806 L 812.5 814 L 806.5 815 L 805.5 816 L 795.5 816 L 782.5 811 L 781 812.5 L 781 829.5 L 780 832 Q 777 832.8 776 830.5 L 775.5 827 L 775 836.5 L 776 837.5 L 777 858.5 L 776 859.5 L 776 865.5 L 775 868.5 L 771.5 873 L 768 870.5 L 767.5 869 Q 765.4 870.4 766 874.5 L 767 875.5 L 767 886.5 L 768 887.5 L 768 895.5 L 769 896.5 L 769 906.5 L 770 909.5 Q 768 910.5 769 914.5 L 767.5 916 Q 763.5 916.5 763 913.5 L 760.5 905 L 759 909.5 L 759 931.5 L 758 932.5 L 758 941.5 L 755 952 L 751.5 954 L 749.5 954 L 745 949.5 L 743 944.5 L 743 941.5 L 739.5 936 L 738 937.5 L 738 961.5 L 739 962.5 L 739 973.5 L 737 979.5 L 734 982.5 L 734 988.5 L 733 989.5 L 733 1010.5 Q 743.1 1022.9 756.5 1032 L 774.5 1043 L 780.5 1043 L 781.5 1042 L 792.5 1042 L 798.5 1044 L 832.5 1062 L 834.5 1062 L 853.5 1071 L 855.5 1071 L 868.5 1077 L 873.5 1078 L 876.5 1080 L 881.5 1081 L 896.5 1088 L 901.5 1089 L 911.5 1094 L 923.5 1098 L 937.5 1105 L 939.5 1105 L 963.5 1117 L 979 1128.5 L 979 1131.5 L 975.5 1135 L 970.5 1135 L 964.5 1132 L 959.5 1131 L 956.5 1129 L 944.5 1125 L 937.5 1121 L 923.5 1116 L 918.5 1113 L 916.5 1113 L 901.5 1106 L 889.5 1102 L 884.5 1099 L 879.5 1098 L 858.5 1089 L 845.5 1085 L 840.5 1082 L 830.5 1079 L 817.5 1072 L 815.5 1072 L 795.5 1060 L 793 1062.5 L 789 1076.5 L 776 1100.5 Q 763.7 1120.2 746.5 1135 L 734.5 1145 L 709.5 1161 L 681.5 1175 L 679.5 1175 L 662.5 1183 L 651.5 1186 L 637.5 1192 L 634.5 1192 L 614.5 1199 L 611.5 1199 L 594.5 1204 L 590.5 1204 L 589.5 1205 L 585.5 1205 L 579.5 1207 L 574.5 1207 L 573.5 1208 L 558.5 1209 L 557.5 1210 L 543.5 1210 L 542.5 1211 L 516.5 1211 L 515.5 1210 L 504.5 1210 L 503.5 1209 L 494.5 1209 L 493.5 1208 L 479.5 1207 L 478.5 1206 L 473.5 1206 L 468.5 1204 L 463.5 1204 L 454.5 1201 L 450.5 1201 L 449.5 1200 L 430.5 1196 L 426.5 1194 L 423.5 1194 L 416.5 1191 L 413.5 1191 L 407.5 1188 L 386.5 1181 L 374.5 1175 L 372.5 1175 L 341.5 1159 L 316.5 1143 L 284.5 1118 L 264 1097.5 L 255 1086.5 L 254 1083.5 L 248 1075.5 L 241 1060.5 L 240 1052.5 L 238.5 1051 L 195.5 1070 L 184.5 1073 L 181.5 1075 L 160.5 1082 L 147.5 1088 L 142.5 1089 L 125.5 1097 L 120.5 1098 L 118.5 1100 L 116.5 1100 L 97.5 1109 L 90.5 1111 L 74.5 1119 L 72.5 1119 L 54.5 1127 L 48.5 1127 Q 44.5 1125.5 46 1118.5 L 48.5 1116 L 62.5 1108 L 116.5 1083 L 196.5 1053 L 235.5 1035 L 242.5 1034 L 243.5 1033 L 249.5 1033 L 258.5 1036 L 264.5 1034 L 277.5 1027 L 294.5 1015 L 303 1006.5 L 307 1000.5 L 312 988.5 L 312 977.5 L 311 976.5 L 310 960.5 L 309 959.5 L 309 951.5 L 308 950.5 L 308 941.5 L 307 940.5 L 307 931.5 L 306 930.5 L 306 920.5 L 305 919.5 L 305 910.5 L 304 909.5 L 304 898.5 L 303 897.5 L 303 887.5 L 302 886.5 L 302 879.5 L 301 878.5 L 301 871.5 L 300 870.5 L 299 855.5 L 297 852.5 L 297 847.5 L 296 846.5 L 295 836.5 L 293 831.5 L 293 827.5 L 292 826.5 L 287 803.5 L 284.5 799 L 280 802.5 L 280 811.5 L 279 812.5 L 279 816.5 L 277 822.5 L 267.5 833 L 260.5 836 L 252.5 837 L 239.5 832 L 233 825.5 L 227 813.5 Q 227.8 810.3 226 809.5 L 226 801.5 L 222.5 798 Q 213.5 793 207 785.5 L 194 768.5 L 181 741.5 L 172 711.5 L 172 707.5 L 170 702.5 L 169 692.5 L 167 686.5 L 167 679.5 L 164.5 677 L 159.5 676 L 152 672 L 147 663.5 Q 147.8 660.2 146 659.5 L 146 650.5 L 151 635.5 L 158.5 626 L 163 624 L 164 620.5 L 164 615.5 L 166 611.5 L 167 605.5 L 174 591.5 L 188.5 576 L 201.5 570 Q 206.3 571.3 207.5 569 L 218.5 569 L 219.5 570 L 230 572 L 230 563.5 L 229 562.5 L 228 548.5 L 227 547.5 L 227 488.5 L 228 487.5 L 228 471.5 L 229 470.5 L 229 460 L 226 458.5 L 231 446.5 L 232 441 Q 227.1 442.8 229 436.5 L 236 422.5 L 236 420 Q 233 420.8 232 418.5 L 234 412.5 L 246 395.5 L 248 390 L 243.5 392 Q 241.5 391.5 242 388.5 L 267 360.5 L 269 356 Q 266.3 357.1 267 354.5 L 280 339.5 L 279 336.5 Q 281.7 329.7 287.5 326 L 296.5 323 L 301 319.5 L 300 317.5 L 303.5 314 L 310.5 312 L 316 306.5 Q 316.3 301.8 319.5 300 L 323.5 298 L 328.5 298 L 331.5 297 L 337 291.5 Q 336.3 289.3 338.5 290 L 345.5 283 L 351.5 281 L 354.5 282 L 360.5 274 L 366.5 274 L 375 270 L 375 268.5 L 379.5 264 L 385.5 261 L 391.5 261 L 417.5 248 L 422.5 247 L 435.5 241 L 438.5 241 L 451.5 236 L 454.5 236 L 458.5 234 L 461.5 234 L 466.5 232 L 470.5 232 L 475.5 230 L 480.5 230 L 481.5 229 Q 486.3 230.3 487.5 228 L 494.5 228 L 495.5 227 L 502.5 227 L 503.5 226 Z M 496 258 L 495 259 L 487 260 L 483 262 L 480 262 L 467 267 L 464 267 Q 461 266 462 262 L 456 262 L 439 269 L 436 268 Q 433 269 434 265 L 430 265 L 425 268 L 418 268 L 407 277 L 402 279 Q 398 280 398 277 L 372 295 L 361 300 L 349 312 L 346 312 Q 347 308 344 309 L 340 318 L 337 321 L 335 321 L 330 326 L 319 343 L 311 351 L 306 366 L 305 373 L 304 374 L 304 378 L 303 379 L 303 383 L 302 384 L 302 411 Q 304 412 303 417 L 304 418 L 304 426 L 297 436 L 297 438 L 299 437 L 301 439 L 300 442 L 291 452 L 290 455 L 293 457 L 293 459 L 280 473 L 276 481 L 275 488 L 274 489 L 274 497 L 273 498 L 273 558 L 274 559 L 274 572 L 272 574 L 273 593 L 274 594 L 274 602 L 275 603 L 276 621 L 277 622 L 277 631 L 278 632 L 278 638 L 279 639 L 279 645 L 280 646 L 280 652 L 281 653 L 281 659 Q 283 660 282 665 L 283 666 L 283 671 L 284 672 L 284 677 L 285 678 L 285 684 L 287 687 L 288 684 L 289 674 Q 289 672 293 672 L 294 674 L 294 683 L 295 684 L 295 703 L 296 704 L 297 710 L 298 709 Q 297 702 299 699 L 302 697 L 305 702 L 305 707 L 307 712 L 308 721 L 310 722 L 310 710 L 311 709 Q 310 705 315 707 L 317 711 L 320 720 L 320 723 L 328 741 L 328 743 L 336 757 L 336 733 Q 337 730 341 730 L 343 733 Q 343 736 345 738 L 354 766 L 358 768 L 359 767 L 360 747 Q 361 744 365 745 L 370 754 L 371 759 L 375 768 L 376 774 L 379 780 Q 378 782 382 781 L 383 780 L 383 768 Q 384 765 388 766 L 393 774 L 400 794 L 403 797 L 406 792 L 407 787 L 411 779 L 413 777 L 409 775 L 409 772 L 414 764 L 413 764 Q 408 765 407 763 L 407 759 L 410 754 L 419 743 L 431 732 Q 443 725 453 716 Q 456 716 457 719 L 457 721 L 454 726 L 460 724 L 462 722 L 494 705 Q 500 703 498 709 L 493 712 L 490 715 L 491 715 L 500 711 L 519 699 L 535 692 Q 540 690 542 694 Q 541 696 544 695 L 545 693 Q 542 690 538 689 L 531 683 L 525 682 L 524 681 Q 517 682 514 680 Q 510 679 511 674 L 515 670 L 523 667 L 528 667 L 529 666 L 539 667 L 550 672 L 566 685 L 571 692 L 569 695 L 563 695 L 560 694 Q 556 693 557 688 L 555 691 L 555 693 L 551 693 L 553 698 L 555 699 L 566 702 L 569 704 L 572 705 L 577 705 L 578 706 L 587 703 L 590 703 L 594 701 L 595 699 L 589 700 L 585 697 L 585 695 L 588 692 L 602 685 L 618 672 Q 623 671 624 674 Q 625 678 623 680 L 611 690 L 609 690 L 608 693 L 611 694 L 616 694 L 619 695 L 627 699 L 649 713 L 663 724 L 664 724 Q 660 722 661 718 L 666 718 L 670 721 Q 671 723 672 721 L 677 722 L 698 737 L 710 750 L 716 761 L 716 764 Q 715 767 712 766 L 720 782 L 724 780 L 726 780 L 727 782 Q 726 785 728 786 Q 727 789 730 788 L 732 770 Q 733 768 736 768 L 739 773 Q 738 776 741 775 L 742 773 L 742 764 L 743 763 L 743 756 L 744 755 L 744 748 L 745 747 Q 744 744 749 745 L 751 748 L 753 753 L 754 751 L 754 743 L 755 742 Q 753 736 759 738 L 761 742 Q 760 744 763 743 L 763 714 L 764 713 L 764 711 L 768 711 L 771 718 L 771 700 L 774 698 L 776 702 L 777 702 Q 778 697 776 696 L 776 684 L 775 683 Q 774 676 778 675 L 780 676 Q 779 679 782 680 L 782 664 L 783 663 L 783 596 L 784 595 L 784 581 L 785 580 L 785 571 L 786 570 L 786 562 L 787 561 L 787 553 L 788 552 L 788 543 L 789 542 L 789 532 L 790 531 L 790 498 L 789 497 L 788 485 L 787 484 L 787 480 L 786 479 L 786 475 L 784 470 L 784 466 L 782 461 L 782 458 L 781 457 L 781 453 L 779 449 L 775 430 L 769 412 L 769 409 L 760 383 L 751 366 L 739 349 L 726 334 L 693 302 L 665 282 L 647 273 L 638 273 L 637 272 L 628 272 Q 626 270 622 271 Q 621 269 618 270 L 615 268 L 616 265 L 601 265 L 600 266 L 588 267 Q 585 266 586 262 L 577 262 L 576 263 L 570 263 L 569 264 L 562 264 L 561 265 L 557 263 L 558 259 L 551 260 L 537 265 L 533 265 L 531 263 L 532 261 L 520 261 L 519 262 L 510 262 L 509 263 L 498 263 L 497 262 Q 495 261 497 260 Q 498 257 496 258 Z M 210 579 L 200 582 L 190 589 L 185 595 L 178 608 L 175 618 L 174 627 L 173 628 L 173 633 L 172 634 L 172 650 L 174 651 L 179 645 L 184 634 L 185 626 L 189 622 Q 194 621 197 623 L 201 630 L 201 643 Q 198 654 191 662 L 177 675 L 177 682 L 180 692 L 180 696 L 184 709 L 184 713 L 188 723 L 188 726 L 191 735 L 201 757 L 215 777 L 223 784 L 227 787 L 229 787 L 234 778 Q 238 771 246 768 Q 254 766 256 772 L 256 778 L 249 789 Q 249 792 247 794 L 247 797 L 252 799 L 262 799 L 271 795 Q 277 791 280 783 L 279 776 L 275 767 L 274 756 L 273 755 L 273 749 L 272 748 L 272 742 L 271 741 L 271 733 L 270 732 L 270 726 L 271 725 L 270 710 L 269 709 L 269 703 L 268 702 L 267 687 L 266 686 L 266 678 L 265 677 L 264 657 L 263 656 L 262 638 L 261 637 L 261 627 L 260 626 L 260 617 L 259 616 L 259 608 L 258 604 L 254 602 Q 244 592 232 584 L 230 584 L 222 580 L 210 579 Z M 820 596 L 809 600 L 797 608 L 793 615 L 793 649 L 794 650 L 794 656 L 796 656 L 811 636 L 826 621 L 835 616 L 839 617 Q 841 618 840 621 L 829 629 L 811 649 L 796 672 L 796 679 L 806 699 L 806 709 L 805 712 L 794 726 L 791 760 L 789 766 L 789 770 L 788 771 L 788 775 L 787 776 L 787 780 L 786 781 L 786 785 L 785 786 L 785 790 L 784 791 L 785 796 L 789 799 L 799 803 L 804 803 L 807 802 L 814 798 L 823 788 L 830 775 L 839 745 L 840 735 L 841 734 L 841 729 L 842 728 L 842 723 L 843 722 L 844 707 L 845 706 L 846 681 L 847 680 L 847 661 L 848 660 L 848 645 L 849 644 L 849 625 L 848 624 L 848 618 L 841 603 Q 837 598 831 596 L 820 596 Z M 795 690 L 795 714 L 798 711 L 800 706 L 797 695 L 795 690 Z M 558 745 L 555 746 L 555 748 L 551 753 L 545 759 L 542 759 Q 539 758 540 754 L 537 755 L 519 768 L 513 771 Q 508 772 507 770 L 507 766 L 509 761 L 507 761 L 504 763 L 499 768 L 479 782 L 475 784 L 471 784 L 470 782 L 472 779 L 470 778 L 470 780 L 465 786 L 463 796 L 460 803 L 457 805 Q 455 807 454 804 L 447 820 L 448 822 L 458 813 L 461 816 L 461 820 L 447 847 L 446 853 L 451 852 L 464 836 L 464 834 L 470 833 L 471 836 L 469 846 L 467 848 L 462 862 L 465 863 Q 472 857 476 849 L 484 841 L 487 841 L 489 845 Q 487 846 488 851 L 483 865 Q 481 866 484 867 L 491 863 L 511 846 Q 515 845 516 848 Q 517 852 515 854 L 516 856 Q 522 849 525 839 L 523 836 L 518 836 L 512 833 L 508 829 Q 507 824 509 823 Q 512 817 519 815 L 525 814 L 526 813 L 535 813 L 536 812 L 603 813 L 604 814 L 621 814 L 622 815 L 628 815 L 632 817 L 637 824 L 637 830 L 630 835 Q 627 834 628 837 L 658 862 L 660 861 L 660 854 L 659 853 L 658 843 Q 659 840 663 840 Q 669 844 672 852 L 680 859 L 682 859 L 680 851 L 674 839 L 673 833 Q 674 830 679 831 L 687 841 L 689 845 L 697 852 L 698 852 L 698 850 L 694 842 L 691 839 L 685 828 L 685 822 L 687 822 L 682 813 L 669 797 L 667 790 Q 668 787 672 788 L 674 790 L 674 790 Q 673 784 669 781 L 667 782 Q 658 778 653 771 L 648 769 L 647 772 L 641 769 L 625 755 Q 625 759 623 760 L 620 760 L 615 757 L 604 745 L 601 750 L 598 750 Q 596 747 593 748 Q 594 754 591 756 Q 586 757 585 754 L 583 754 L 580 757 L 576 757 L 571 754 Q 566 752 566 747 Q 562 746 561 749 L 559 747 Q 560 744 558 745 Z M 249 809 L 246 812 L 248 816 L 253 819 Q 257 820 259 818 L 262 814 Q 263 810 261 809 L 258 810 L 252 810 L 249 809 Z M 601 840 Q 603 849 609 856 L 611 855 L 605 842 Q 604 839 601 840 Z M 308 849 L 306 851 Q 308 851 307 855 L 309 856 Q 310 851 308 849 Z M 318 877 L 317 881 Q 319 882 318 887 L 319 888 L 319 896 L 320 897 L 320 905 L 321 906 L 321 914 L 322 915 L 323 931 L 324 932 L 325 951 L 326 952 L 326 961 L 327 962 L 328 984 L 329 985 L 329 997 L 330 998 L 330 1013 L 331 1014 L 332 1047 L 333 1048 L 333 1061 L 334 1062 L 333 1067 Q 332 1070 326 1069 L 322 1065 L 321 1054 L 320 1053 L 320 1047 L 319 1046 L 319 1040 L 318 1039 L 318 1032 L 317 1031 L 317 1024 L 316 1023 L 316 1018 L 311 1024 Q 300 1035 286 1044 L 271 1052 L 261 1055 L 258 1058 L 258 1062 L 262 1070 L 273 1085 L 287 1098 L 323 1126 L 357 1147 L 383 1160 L 423 1175 L 426 1175 L 430 1177 L 437 1178 L 449 1182 L 468 1185 L 469 1186 L 473 1186 L 474 1187 L 479 1187 L 480 1188 L 493 1189 L 494 1190 L 503 1190 L 504 1191 L 515 1191 L 516 1192 L 549 1192 L 550 1191 L 564 1191 L 565 1190 L 572 1190 L 573 1189 L 580 1189 L 581 1188 L 586 1188 L 592 1186 L 596 1186 L 597 1185 L 601 1185 L 602 1184 L 606 1184 L 607 1183 L 611 1183 L 629 1177 L 632 1177 L 662 1166 L 684 1156 L 686 1154 L 709 1142 L 736 1123 Q 750 1110 762 1095 L 776 1068 L 775 1064 L 747 1047 L 731 1033 L 729 1034 Q 723 1035 722 1033 L 722 1023 Q 722 1022 719 1022 L 716 1020 L 714 1008 L 713 1014 L 712 1015 Q 711 1018 713 1020 L 713 1028 L 714 1029 L 714 1037 L 715 1038 L 715 1049 L 712 1057 L 709 1060 L 706 1061 L 703 1060 L 700 1051 Q 701 1047 699 1048 L 697 1050 L 696 1060 L 695 1061 L 695 1064 L 692 1074 L 685 1087 L 676 1096 L 667 1099 L 664 1097 L 663 1086 L 661 1084 L 657 1090 Q 658 1093 656 1094 L 656 1110 L 657 1113 L 654 1115 L 646 1105 L 642 1110 L 638 1109 L 633 1104 L 628 1094 Q 628 1092 625 1092 L 623 1094 Q 624 1097 622 1099 L 622 1113 Q 620 1114 621 1119 L 620 1122 L 617 1125 L 613 1125 L 604 1119 L 601 1116 L 599 1118 L 601 1122 Q 602 1126 599 1127 Q 590 1126 587 1119 Q 584 1120 585 1118 L 573 1105 L 570 1105 L 570 1108 L 573 1113 L 579 1118 L 590 1125 L 594 1130 L 593 1132 L 587 1132 L 576 1128 Q 560 1121 548 1111 L 534 1097 L 533 1098 L 533 1101 L 537 1108 Q 544 1117 555 1124 L 554 1126 L 549 1126 L 535 1119 L 522 1110 Q 513 1104 508 1095 L 506 1094 L 507 1099 L 512 1108 L 512 1112 L 508 1112 L 503 1109 L 492 1099 L 484 1088 L 483 1085 L 478 1079 L 475 1082 L 475 1099 L 474 1101 L 469 1100 L 452 1088 L 444 1080 L 439 1071 L 434 1055 L 433 1046 L 432 1045 L 432 1039 L 431 1034 L 429 1038 L 428 1046 L 424 1056 L 421 1058 L 418 1057 L 412 1051 L 408 1041 L 408 1035 L 407 1034 L 407 1009 L 404 1016 Q 403 1018 400 1018 L 397 1016 L 396 1013 L 396 1007 L 395 1006 Q 394 1001 396 1000 L 396 988 L 397 987 L 397 977 L 396 975 L 394 977 L 393 982 L 389 991 L 386 994 Q 383 995 382 993 L 382 980 L 383 979 L 383 969 L 382 967 L 381 969 Q 380 971 377 970 L 372 963 L 370 953 L 368 949 L 368 946 L 366 942 Q 367 939 364 940 L 364 944 L 361 952 L 358 954 L 356 954 L 351 949 L 347 936 L 347 932 L 346 931 L 346 927 L 345 923 Q 341 922 343 928 Q 342 930 339 929 L 336 927 L 333 919 L 326 887 Q 325 884 322 885 L 318 877 Z M 721 982 L 721 994 L 722 995 L 723 1000 L 724 998 L 724 984 L 721 982 Z " /><path fill="rgb(2,2,1)" stroke="rgb(2,2,1)" stroke-width="1" opacity="1" d="M 331.5 429 L 339.5 429 L 341 430.5 Q 342.5 434.9 339.5 434 L 336 436.5 L 335 441.5 L 332.5 444 Q 328 445 327 442.5 Q 325.2 440.3 326 435.5 L 331.5 429 Z " /><path fill="rgb(2,2,1)" stroke="rgb(2,2,1)" stroke-width="1" opacity="1" d="M 381.5 436 L 395.5 436 L 396.5 437 L 404.5 437 L 405.5 438 L 412.5 438 L 413.5 439 L 422.5 440 L 422 438.5 L 423.5 436 L 430.5 436 L 431.5 437 L 442.5 438 L 443.5 439 L 462.5 442 L 463.5 443 L 482.5 447 L 495.5 452 L 502 457.5 L 508 469.5 L 511 478.5 L 511 481.5 L 513 485.5 L 514 492.5 Q 513.5 495.5 509.5 495 L 501.5 488 L 496.5 488 L 492.5 484 L 491 484 L 492 487.5 Q 491.5 490.5 487.5 490 L 486.5 489 L 477.5 488 L 476.5 487 L 473.5 487 L 460.5 483 L 451.5 482 L 450.5 481 L 445.5 481 L 444.5 480 L 439.5 480 L 438.5 479 Q 433.7 480.3 432.5 478 L 425.5 478 L 424.5 477 L 409 477 L 409 481 L 407.5 481 L 406.5 482 L 392.5 482 L 391.5 483 L 378.5 484 L 377.5 485 L 368.5 486 L 357.5 490 L 350.5 490 L 349 488.5 L 351 486.5 L 350.5 486 L 339.5 490 L 337 489 L 337 485 L 335.5 485 Q 333.3 488 328 487 Q 329.5 483.2 326.5 484 L 323.5 485 L 321 482.5 L 331.5 472 L 342 464.5 L 337.5 464 L 335 461.5 L 337.5 458 L 354.5 448 L 372.5 439 L 381.5 436 Z " /><path fill="rgb(2,2,1)" stroke="rgb(2,2,1)" stroke-width="1" opacity="1" d="M 502 445 L 505.5 445 L 510 449.5 L 519 467.5 L 519 470.5 L 522.5 479 L 523 466.5 L 522 465.5 L 522 456.5 Q 523.2 454 527 455 L 529 461.5 L 529 466.5 L 530 467.5 L 530 480.5 L 531 481.5 L 531 488.5 L 528 496.5 L 528 501.5 L 526.5 503 L 523.5 504 L 521 501.5 L 520 498.5 L 520 493.5 L 515 486.5 L 515 483.5 L 513 479.5 L 513 476.5 L 510 467.5 L 502 449.5 L 502 445 Z " /><path fill="rgb(2,2,1)" stroke="rgb(2,2,1)" stroke-width="1" opacity="1" d="M 646.5 451 Q 649.5 450.5 650 452.5 L 649 458 Q 653.1 459.3 654.5 457 L 661.5 457 L 662.5 456 L 668.5 456 L 669.5 455 L 688.5 454 L 689.5 453 L 723 453 L 723.5 455 L 739.5 455 Q 740.3 456.8 743.5 456 L 745 457.5 L 727 458 L 727.5 460 L 742.5 460 L 743.5 461 L 751.5 462 L 757.5 465 L 766 472.5 L 764.5 475 L 753.5 469 L 748.5 468 L 749.5 470 L 753.5 471 L 762.5 476 L 774 487.5 L 777 495 L 773 495.5 L 780 508.5 L 780 514 Q 776.2 515 775 512.5 L 771 505 L 768.5 504 L 768 507.5 L 775 516.5 L 775 521 L 771.5 521 L 756.5 510 L 740.5 503 L 732.5 501 L 725.5 496 Q 721.5 497 720.5 495 L 711.5 495 L 710.5 494 L 678.5 493 L 677.5 494 L 663.5 494 L 662.5 495 L 655.5 495 L 654.5 496 L 648.5 496 L 647.5 497 L 634.5 499 L 631.5 496 L 629.5 498 L 619.5 502 L 616.5 499 L 615 500.5 L 611.5 505 Q 608.5 505.5 608 503.5 L 607 501.5 L 608 499 Q 605.1 499.5 604 496.5 L 604 484.5 L 605 483.5 L 606 464.5 L 608.5 462 Q 612.3 461.3 613 463.5 L 612 483.5 L 613 483.5 L 618 466.5 L 621 461.5 L 621 459.5 L 624.5 456 Q 628.5 455.5 629 458.5 L 622 483.5 L 624 482.5 Q 633.1 464.6 646.5 451 Z " /><path fill="rgb(2,2,1)" stroke="rgb(2,2,1)" stroke-width="1" opacity="1" d="M 539.5 461 Q 542.5 460.5 543 462.5 L 543 478.5 L 542 479.5 L 541 495.5 Q 539.3 496.3 540 499.5 L 537.5 502 Q 534.5 502.5 534 500.5 L 534 487.5 L 535 486.5 L 535 478.5 L 536 477.5 L 536 467.5 Q 537.8 466.8 537 463.5 L 539.5 461 Z " /><path fill="rgb(2,2,1)" stroke="rgb(2,2,1)" stroke-width="1" opacity="1" d="M 318.5 488 L 327.5 488 L 331 490 L 335 497.5 L 335 503.5 L 332 510 Q 329.3 508.9 330 511.5 L 335.5 521 Q 343 521.5 346 526.5 Q 349.3 530.2 348 538.5 L 343.5 545 Q 339.8 548.3 331.5 547 L 324 541.5 L 322 536.5 L 322 532.5 Q 323.7 531.8 323 528.5 L 328 522.5 Q 325 519.3 326 513 L 319.5 513 L 312 507.5 L 310 502.5 L 310 497.5 L 314.5 490 L 318.5 488 Z M 322 496 L 319 499 Q 318 502 321 503 Q 325 504 326 501 L 325 498 Q 325 495 322 496 Z M 335 530 L 332 531 L 331 535 Q 332 538 337 537 L 339 534 L 338 531 L 335 530 Z " /><path fill="rgb(2,2,1)" stroke="rgb(2,2,1)" stroke-width="1" opacity="1" d="M 743.5 508 L 747.5 509 L 756.5 514 L 770 526.5 Q 771.5 530.9 768.5 530 Q 767.5 532 766.5 530 L 743.5 512 L 742 512 Q 741.3 509 743.5 508 Z " /><path fill="rgb(2,2,1)" stroke="rgb(2,2,1)" stroke-width="1" opacity="1" d="M 592.5 524 L 596 525 L 602 554.5 L 605 561.5 L 605 564.5 L 608 573.5 L 610 576.5 L 611 581.5 L 613 584.5 L 614 589.5 L 616 592.5 L 618 600.5 L 620 603.5 L 626 620.5 L 635 638.5 L 640 645.5 L 644 656.5 Q 642.8 661.3 645 662.5 L 645 673.5 L 641 685.5 L 635.5 691 L 630.5 692 L 627 688.5 L 627 685.5 L 632 677.5 L 634 664.5 L 633 663.5 L 632 654.5 Q 629.2 647.3 624 642.5 L 624 640.5 L 620 633.5 L 602 585.5 L 602 582.5 L 599 575.5 L 599 572.5 L 595 559.5 L 595 555.5 L 593 550.5 L 593 545.5 L 591 539.5 L 591 531.5 Q 589 530.5 590 526.5 L 592.5 524 Z " /><path fill="rgb(2,2,1)" stroke="rgb(2,2,1)" stroke-width="1" opacity="1" d="M 418.5 526 L 449.5 526 L 450.5 527 L 455.5 527 L 456.5 528 L 460.5 528 L 461.5 529 L 468.5 530 L 487.5 538 L 500.5 546 L 510 553.5 Q 511.3 559.8 507.5 561 L 503.5 562 L 470.5 545 L 464.5 544 L 463 545.5 L 461 558.5 Q 458.5 565 453.5 569 L 443.5 574 Q 439.5 573 438.5 575 L 427.5 575 Q 426.5 573 422.5 574 L 411.5 568 L 402 559.5 L 400 553.5 L 400 545 L 397.5 544 L 379.5 552 L 377 554.5 L 378 558.5 L 383.5 565 L 387 567.5 L 388 569.5 L 387 572 L 379.5 571 Q 370.8 567.7 365.5 561 L 361.5 560 L 360.5 561 Q 356.3 560.3 354.5 562 L 350 558.5 L 349 555.5 L 351 551 L 382.5 535 L 397.5 530 L 400.5 530 L 405.5 528 L 410.5 528 L 411.5 527 L 417.5 527 L 418.5 526 Z " /><path fill="rgb(2,2,1)" stroke="rgb(2,2,1)" stroke-width="1" opacity="1" d="M 659.5 536 L 686.5 536 L 687.5 537 L 693.5 537 L 694.5 538 L 697.5 538 L 698.5 539 L 701.5 539 L 711.5 542 L 733.5 553 Q 744.5 560 753 569.5 L 755 574.5 L 751.5 579 L 746.5 580 L 738.5 576 Q 731.9 581.9 722.5 585 L 714.5 586 L 713.5 587 L 704.5 587 L 703 584.5 L 705.5 582 L 710.5 581 L 720.5 576 L 724.5 572 L 726 572 L 727 568.5 L 721.5 562 L 708.5 555 L 705.5 555 L 704 556.5 L 703 564.5 L 700 570.5 L 692.5 578 L 680.5 583 L 668.5 583 L 667.5 582 L 661.5 581 L 653.5 577 L 648 571.5 L 645 565.5 L 644 554 L 638.5 555 L 623.5 563 L 615.5 565 L 611 561.5 Q 609.8 555.3 613.5 554 L 625.5 547 L 641.5 540 L 644.5 540 L 653.5 537 L 658.5 537 L 659.5 536 Z " /><path fill="rgb(2,2,1)" stroke="rgb(2,2,1)" stroke-width="1" opacity="1" d="M 486.5 567 L 492 568 Q 492.8 571 490.5 572 L 481.5 575 L 472.5 576 L 471 573.5 L 473.5 571 L 486.5 567 Z " /><path fill="rgb(2,2,1)" stroke="rgb(2,2,1)" stroke-width="1" opacity="1" d="M 626 573 Q 638.1 573.2 645 579.5 L 646 581.5 Q 645.5 584.5 641.5 584 L 633.5 581 L 626 576.5 L 626 573 Z " /><path fill="rgb(2,2,1)" stroke="rgb(2,2,1)" stroke-width="1" opacity="1" d="M 197.5 598 L 206.5 598 L 209.5 599 Q 215.3 601.2 218.5 606 L 220 606 L 220 607.5 L 229 617.5 L 243 639.5 L 253 658.5 L 254 663.5 Q 252.2 664.3 253 667.5 L 242 687.5 L 242 695.5 L 252 707.5 L 254 711.5 L 254 714.5 L 260 723.5 L 263 731.5 L 260.5 736 Q 248 737 244 729.5 L 244 717.5 Q 239.2 708.3 231 702.5 L 229 698.5 L 228 689.5 L 240 665.5 L 240 658.5 L 229 634.5 L 218 617.5 L 208.5 608 L 202.5 605 L 198.5 605 L 192 609.5 L 188.5 616 L 185 613.5 Q 186.8 604.3 193.5 600 L 197.5 598 Z " /><path fill="rgb(2,2,1)" stroke="rgb(2,2,1)" stroke-width="1" opacity="1" d="M 521.5 605 L 525 606 L 526 609.5 L 513 635.5 L 513 637.5 L 505 654.5 L 501 667.5 L 501 675.5 Q 503.2 683.3 509 687.5 L 509 692.5 Q 508.3 695.8 503.5 695 L 496 689.5 L 492 683.5 L 490 677.5 L 490 665.5 L 491 664.5 L 491 661.5 L 493 657.5 L 494 651.5 L 499 641.5 L 499 639.5 L 501 637.5 L 511 617.5 L 519.5 606 L 521.5 605 Z " /><path fill="rgb(2,2,1)" stroke="rgb(2,2,1)" stroke-width="1" opacity="1" d="M 828.5 638 Q 831.5 637.5 832 639.5 L 833 642.5 L 833 652.5 L 834 653.5 L 834 662.5 Q 836 663.5 835 667.5 Q 834.5 669.5 831.5 669 L 830 667.5 L 830 663.5 L 829 662.5 L 829 658.5 L 827 652.5 L 827 639.5 L 828.5 638 Z " /><path fill="rgb(2,2,1)" stroke="rgb(2,2,1)" stroke-width="1" opacity="1" d="M 195.5 684 L 200 687.5 L 210 704.5 L 218 716.5 L 222 720.5 L 222 722 L 223.5 722 L 228 726.5 L 230 732.5 L 239 745.5 L 240 750.5 Q 239 753 234.5 752 L 222 740.5 L 211 725.5 L 203 709.5 L 201 707.5 L 201 705.5 L 193 689.5 L 193 685 L 195.5 684 Z " /><path fill="rgb(2,2,1)" stroke="rgb(2,2,1)" stroke-width="1" opacity="1" d="M 824.5 709 L 827 710.5 L 827 718.5 L 826 719.5 L 826 723.5 L 821 740.5 Q 816.8 751.3 808.5 758 L 804 758 L 804 756.5 L 803 754.5 L 816 730.5 L 822 712.5 L 824.5 709 Z " /><path fill="rgb(2,2,1)" stroke="rgb(2,2,1)" stroke-width="1" opacity="1" d="M 537.5 773 L 577.5 773 L 578.5 774 L 590.5 774 L 591.5 775 L 603.5 775 L 604.5 776 L 611.5 776 L 612.5 777 L 617.5 777 L 618.5 778 L 622.5 778 L 623.5 779 L 630.5 780 L 645.5 785 L 654.5 789 L 658 792.5 Q 658.8 797.3 655.5 798 L 649.5 798 L 638.5 793 L 628.5 790 L 625.5 790 L 624.5 789 L 621.5 789 L 620.5 788 L 610.5 787 L 609.5 786 L 602.5 786 L 601.5 785 L 590.5 785 L 589.5 784 L 531.5 784 L 530.5 785 L 520.5 785 Q 519.3 787.3 514.5 786 L 513.5 787 L 504.5 788 L 503.5 789 L 484.5 793 L 483.5 794 L 478.5 794 Q 475.3 793.3 476 788.5 L 481.5 785 L 493.5 781 L 504.5 779 L 508.5 777 L 518.5 776 L 519.5 775 L 525.5 775 L 526.5 774 L 536.5 774 L 537.5 773 Z " /><path fill="rgb(2,2,1)" stroke="rgb(2,2,1)" stroke-width="1" opacity="1" d="M 202.5 1084 L 206 1086.5 L 209 1092.5 L 220 1107.5 Q 240.3 1131.2 263 1152.5 L 268 1159.5 L 265.5 1161 L 258.5 1158 L 239 1141.5 L 226 1127.5 L 212 1109.5 L 202 1093.5 L 201 1090.5 L 201 1085.5 L 202.5 1084 Z " /><path fill="rgb(2,2,1)" stroke="rgb(2,2,1)" stroke-width="1" opacity="1" d="M 825 1094 Q 828 1093.3 829 1095.5 L 829 1103.5 L 828 1104.5 L 827 1111.5 L 819 1129.5 L 808 1145.5 L 785.5 1169 L 759.5 1190 L 736.5 1205 L 705.5 1220 L 691.5 1224 L 690 1221 L 695.5 1219 L 715.5 1207 L 741.5 1190 L 765.5 1172 L 784 1155.5 L 806 1129.5 L 814 1116.5 L 825 1094 Z " /><path fill="rgb(2,2,1)" stroke="rgb(2,2,1)" stroke-width="1" opacity="1" d="M 409 1232 L 411.5 1233 L 419.5 1234 L 427.5 1237 L 440.5 1239 L 441.5 1240 L 446.5 1240 L 447.5 1241 L 458.5 1242 L 459.5 1243 L 465.5 1243 L 466.5 1244 L 473.5 1244 L 474.5 1245 L 483.5 1245 L 484.5 1246 L 499.5 1246 L 500.5 1247 L 570.5 1247 L 571.5 1246 L 594.5 1245 L 595.5 1244 L 603.5 1244 L 604.5 1243 L 618.5 1242 L 619.5 1241 L 625.5 1241 L 626.5 1240 L 636 1240 Q 636.5 1242.9 633.5 1244 L 627.5 1247 L 618.5 1249 L 614.5 1251 L 611.5 1251 L 602.5 1254 L 591.5 1255 L 590.5 1256 L 582.5 1256 L 581.5 1257 L 568.5 1257 L 567.5 1258 L 529.5 1258 L 528.5 1257 L 514.5 1257 L 513.5 1256 L 500.5 1256 L 499.5 1255 L 491.5 1255 L 490.5 1254 L 483.5 1254 L 482.5 1253 L 476.5 1253 L 475.5 1252 L 469.5 1252 L 468.5 1251 L 464.5 1251 L 458.5 1249 L 453.5 1249 L 448.5 1247 L 444.5 1247 L 443.5 1246 L 436.5 1245 L 426.5 1241 L 423.5 1241 L 412.5 1237 L 409 1234.5 L 409 1232 Z " /></svg>